# xmcd
#
# Track frame offsets: 
#        150
#        12645
#        27050
#        38730
#        49788
#        60405
#        69916
#        87012
#        99977
#        113256
#        124744
#        133903
#        151751
#        167452
#        183463
#        194718
#        206002
#        217466
#        230671
#        245134
#
# Disc length: 3551 seconds
#
# Revision: 0
# Processed by: cddbd v1.5.2PL0 Copyright (c) Steve Scherf et al.
# Submitted via: ExactAudioCopyFreeDBPlugin 1.0
#
DISCID=160ddd14
DTITLE=Various Artist - 100 Country Classics  CD 5, 2010
DYEAR=1900
DGENRE=Country
TTITLE0=Johnny Cash - Folsom Prison Blues (1955)
TTITLE1=Ringo (1964)
TTITLE2=Sixteen Tons (1955)
TTITLE3=King Of The Road (1965)
TTITLE4=Bye Bye Love (1957)
TTITLE5=From A Jack To A King (1962)
TTITLE6=Convoy (1975)
TTITLE7=Icon (1979)
TTITLE8=Leaving Louisiana In The Broad Daylight (1978)
TTITLE9=Guitar Town (1986)
TTITLE10=Promised Land (1971)
TTITLE11=Wave On Wave (2003)
TTITLE12=The Gambler (1978)
TTITLE13=Mr. Bojangles (1969)
TTITLE14=It Wasn't God Who Made Honky Tonk Angels (1952)
TTITLE15=Don't It Make My Brown Eyes Blue (1977)
TTITLE16=All I Have To Do Is Dream (1968)
TTITLE17=When You're In Love With A Beautiful Woman (1978)
TTITLE18=Let Your Love Flow (1976)
TTITLE19=Sweet Home Alabama (1974)
EXTD=
EXTT0=
EXTT1=
EXTT2=
EXTT3=
EXTT4=
EXTT5=
EXTT6=
EXTT7=
EXTT8=
EXTT9=
EXTT10=
EXTT11=
EXTT12=
EXTT13=
EXTT14=
EXTT15=
EXTT16=
EXTT17=
EXTT18=
EXTT19=
PLAYORDER=
